<mxfile host="app.diagrams.net" agent="Mozilla/5.0 (Windows NT 10.0; Win64; x64) AppleWebKit/537.36 (KHTML, like Gecko) Chrome/129.0.0.0 Safari/537.36 Edg/129.0.0.0" version="24.7.17">
  <diagram name="PÃ¡gina-1" id="bRfz_oTGeSjcoAtHIi3C">
    <mxGraphModel dx="1030" dy="413" grid="0" gridSize="10" guides="1" tooltips="1" connect="1" arrows="1" fold="1" page="1" pageScale="1" pageWidth="827" pageHeight="1169" math="0" shadow="0">
      <root>
        <mxCell id="0" />
        <mxCell id="1" parent="0" />
        <mxCell id="LbyYK6QOJ48q-XHCJVqT-23" value="" style="ellipse;whiteSpace=wrap;html=1;fillColor=#FF0808;gradientColor=none;opacity=20;dashed=1;shadow=0;" vertex="1" parent="1">
          <mxGeometry x="289.37" y="325" width="163.25" height="141" as="geometry" />
        </mxCell>
        <mxCell id="LbyYK6QOJ48q-XHCJVqT-6" value="" style="ellipse;whiteSpace=wrap;html=1;fillColor=#FF0808;gradientColor=none;opacity=20;dashed=1;" vertex="1" parent="1">
          <mxGeometry x="450" y="180" width="152.5" height="140" as="geometry" />
        </mxCell>
        <mxCell id="LbyYK6QOJ48q-XHCJVqT-5" value="" style="ellipse;whiteSpace=wrap;html=1;fillColor=#FF0808;gradientColor=none;opacity=20;dashed=1;" vertex="1" parent="1">
          <mxGeometry x="70" y="165" width="210" height="188" as="geometry" />
        </mxCell>
        <mxCell id="LbyYK6QOJ48q-XHCJVqT-1" value="" style="image;points=[];aspect=fixed;html=1;align=center;shadow=0;dashed=0;image=img/lib/allied_telesis/buildings/Building_Cluster.svg;" vertex="1" parent="1">
          <mxGeometry x="106.8" y="220" width="121.2" height="111" as="geometry" />
        </mxCell>
        <mxCell id="LbyYK6QOJ48q-XHCJVqT-2" value="" style="image;points=[];aspect=fixed;html=1;align=center;shadow=0;dashed=0;image=img/lib/allied_telesis/buildings/Large_Building.svg;" vertex="1" parent="1">
          <mxGeometry x="500" y="212.5" width="75" height="75" as="geometry" />
        </mxCell>
        <mxCell id="LbyYK6QOJ48q-XHCJVqT-4" value="" style="shape=image;html=1;verticalAlign=top;verticalLabelPosition=bottom;labelBackgroundColor=#ffffff;imageAspect=0;aspect=fixed;image=https://cdn4.iconfinder.com/data/icons/transportation-190/1000/aircraft_fighter_war_army_military_helicopter_helicopter_military-128.png" vertex="1" parent="1">
          <mxGeometry x="160" y="172" width="58" height="58" as="geometry" />
        </mxCell>
        <mxCell id="LbyYK6QOJ48q-XHCJVqT-8" value="" style="sketch=0;outlineConnect=0;fontColor=#232F3E;gradientColor=none;strokeColor=#232F3E;fillColor=none;dashed=0;verticalLabelPosition=bottom;verticalAlign=top;align=center;html=1;fontSize=12;fontStyle=0;aspect=fixed;shape=mxgraph.aws4.resourceIcon;resIcon=mxgraph.aws4.internet_alt1;" vertex="1" parent="1">
          <mxGeometry x="326" y="43" width="90" height="90" as="geometry" />
        </mxCell>
        <mxCell id="LbyYK6QOJ48q-XHCJVqT-9" value="" style="image;html=1;image=img/lib/clip_art/computers/Server_Rack_128x128.png" vertex="1" parent="1">
          <mxGeometry x="250" y="220" width="60" height="60" as="geometry" />
        </mxCell>
        <mxCell id="LbyYK6QOJ48q-XHCJVqT-10" value="" style="image;html=1;image=img/lib/clip_art/computers/Server_Rack_128x128.png;portConstraintRotation=0;direction=east;flipH=1;" vertex="1" parent="1">
          <mxGeometry x="420" y="220" width="60" height="60" as="geometry" />
        </mxCell>
        <mxCell id="LbyYK6QOJ48q-XHCJVqT-11" value="" style="endArrow=classic;html=1;rounded=0;" edge="1" parent="1">
          <mxGeometry width="50" height="50" relative="1" as="geometry">
            <mxPoint x="293" y="218" as="sourcePoint" />
            <mxPoint x="346.05109489051097" y="126" as="targetPoint" />
          </mxGeometry>
        </mxCell>
        <mxCell id="LbyYK6QOJ48q-XHCJVqT-12" value="" style="endArrow=none;html=1;rounded=0;startArrow=classic;startFill=1;endFill=0;" edge="1" parent="1">
          <mxGeometry width="50" height="50" relative="1" as="geometry">
            <mxPoint x="283" y="217" as="sourcePoint" />
            <mxPoint x="336" y="125" as="targetPoint" />
          </mxGeometry>
        </mxCell>
        <mxCell id="LbyYK6QOJ48q-XHCJVqT-13" value="" style="endArrow=classic;html=1;rounded=0;" edge="1" parent="1">
          <mxGeometry width="50" height="50" relative="1" as="geometry">
            <mxPoint x="435.5" y="217" as="sourcePoint" />
            <mxPoint x="389" y="125" as="targetPoint" />
          </mxGeometry>
        </mxCell>
        <mxCell id="LbyYK6QOJ48q-XHCJVqT-15" value="" style="endArrow=none;html=1;rounded=0;startArrow=classic;startFill=1;endFill=0;" edge="1" parent="1">
          <mxGeometry width="50" height="50" relative="1" as="geometry">
            <mxPoint x="444.5" y="216" as="sourcePoint" />
            <mxPoint x="398" y="124" as="targetPoint" />
          </mxGeometry>
        </mxCell>
        <mxCell id="LbyYK6QOJ48q-XHCJVqT-17" value="INTERNET" style="text;html=1;align=center;verticalAlign=middle;whiteSpace=wrap;rounded=0;fontStyle=1;fontSize=16;" vertex="1" parent="1">
          <mxGeometry x="341" y="40" width="60" height="30" as="geometry" />
        </mxCell>
        <mxCell id="LbyYK6QOJ48q-XHCJVqT-18" value="A" style="text;html=1;align=center;verticalAlign=middle;whiteSpace=wrap;rounded=0;fontStyle=1;fontSize=16;" vertex="1" parent="1">
          <mxGeometry x="256" y="275" width="60" height="30" as="geometry" />
        </mxCell>
        <mxCell id="LbyYK6QOJ48q-XHCJVqT-19" value="B" style="text;html=1;align=center;verticalAlign=middle;whiteSpace=wrap;rounded=0;fontStyle=1;fontSize=16;" vertex="1" parent="1">
          <mxGeometry x="408" y="275" width="60" height="30" as="geometry" />
        </mxCell>
        <mxCell id="LbyYK6QOJ48q-XHCJVqT-21" value="" style="image;points=[];aspect=fixed;html=1;align=center;shadow=0;dashed=0;image=img/lib/allied_telesis/buildings/Long_Building.svg;" vertex="1" parent="1">
          <mxGeometry x="324.45" y="362" width="87.08" height="90" as="geometry" />
        </mxCell>
        <mxCell id="LbyYK6QOJ48q-XHCJVqT-22" value="" style="image;html=1;image=img/lib/clip_art/computers/Server_Rack_128x128.png" vertex="1" parent="1">
          <mxGeometry x="338" y="305" width="60" height="60" as="geometry" />
        </mxCell>
        <mxCell id="LbyYK6QOJ48q-XHCJVqT-24" value="C" style="text;html=1;align=center;verticalAlign=middle;whiteSpace=wrap;rounded=0;fontStyle=1;fontSize=16;" vertex="1" parent="1">
          <mxGeometry x="366" y="335" width="60" height="30" as="geometry" />
        </mxCell>
        <mxCell id="LbyYK6QOJ48q-XHCJVqT-25" value="" style="endArrow=classic;html=1;rounded=0;" edge="1" parent="1" target="LbyYK6QOJ48q-XHCJVqT-8">
          <mxGeometry width="50" height="50" relative="1" as="geometry">
            <mxPoint x="374" y="298" as="sourcePoint" />
            <mxPoint x="416" y="230" as="targetPoint" />
          </mxGeometry>
        </mxCell>
        <mxCell id="LbyYK6QOJ48q-XHCJVqT-26" value="" style="endArrow=none;html=1;rounded=0;startArrow=classic;startFill=1;endFill=0;" edge="1" parent="1">
          <mxGeometry width="50" height="50" relative="1" as="geometry">
            <mxPoint x="366" y="299" as="sourcePoint" />
            <mxPoint x="364" y="134" as="targetPoint" />
          </mxGeometry>
        </mxCell>
      </root>
    </mxGraphModel>
  </diagram>
</mxfile>
